#Comment line ignore any data following # character 
#Hierarchical Translation and Rotation (.htr) file 
[Header]	
#Header keywords are followed by a single value 
FileType HTR		#Single word string
DataType HTRS		#Translation followed by rotation and scale data
FileVersion 1		#integer
NumSegments 84		#integer
NumFrames 2		#integer
DataFrameRate 30		#integer, data frame rate in this file
EulerRotationOrder ZYX
CalibrationUnits mm
RotationUnits Degrees
GlobalAxisofGravity Y
BoneLengthAxis Y
ScaleFactor 1.00
[SegmentNames&Hierarchy]
#CHILD	PARENT
MASTER GLOBAL
root MASTER
chest root
L_mid_tent01 root
R_mid_tent01 root
spine01 root
Bip01_Neck chest
L_humerus chest
R_humerus chest
weapon_bone chest
Bip01_Head Bip01_Neck
eye_left_bone Bip01_Head
eye_right_bone Bip01_Head
L_forearm L_humerus
L_front_hand L_forearm
L_weapon_bone L_forearm
L_front_hand01_01 L_front_hand
L_front_hand02_01 L_front_hand
L_front_hand03_01 L_front_hand
L_front_hand01_02 L_front_hand01_01
L_front_hand02_02 L_front_hand02_01
L_front_hand03_02 L_front_hand03_01
R_forearm R_humerus
R_front_hand R_forearm
R_weapon_bone R_forearm
R_front_hand01_01 R_front_hand
R_front_hand02_01 R_front_hand
R_front_hand03_01 R_front_hand
R_front_hand01_02 R_front_hand01_01
R_front_hand02_02 R_front_hand02_01
R_front_hand03_02 R_front_hand03_01
null_rope01_connect L_mid_tent01
Rope1_Seg01 null_rope01_connect
Rope1_Seg02 Rope1_Seg01
Rope1_Seg03 Rope1_Seg02
Rope1_Seg04 Rope1_Seg03
Rope1_Seg05 Rope1_Seg04
Rope1_Seg06 Rope1_Seg05
Rope1_Seg07 Rope1_Seg06
Rope1_Seg09 Rope1_Seg07
L_mid_hand01 Rope1_Seg09
L_mid_hand02 Rope1_Seg09
L_mid_hand03 Rope1_Seg09
null_rope02_connect R_mid_tent01
Rope2_Seg01 null_rope02_connect
Rope2_Seg02 Rope2_Seg01
Rope2_Seg03 Rope2_Seg02
Rope2_Seg04 Rope2_Seg03
Rope2_Seg05 Rope2_Seg04
Rope2_Seg06 Rope2_Seg05
Rope2_Seg07 Rope2_Seg06
Rope2_Seg09 Rope2_Seg07
R_mid_hand01 Rope2_Seg09
R_mid_hand02 Rope2_Seg09
R_mid_hand03 Rope2_Seg09
spine02 spine01
spine03 spine02
pelvis spine03
null_rope03_connect pelvis
null_rope04_connect pelvis
Rope3_Seg01 null_rope03_connect
Rope3_Seg02 Rope3_Seg01
Rope3_Seg03 Rope3_Seg02
Rope3_Seg04 Rope3_Seg03
Rope3_Seg05 Rope3_Seg04
Rope3_Seg06 Rope3_Seg05
Rope3_Seg07 Rope3_Seg06
Rope3_Seg08 Rope3_Seg07
Rope3_Seg09 Rope3_Seg08
R_rear_hand01 Rope3_Seg09
R_rear_hand02 Rope3_Seg09
R_rear_hand03 Rope3_Seg09
Rope4_Seg01 null_rope04_connect
Rope4_Seg02 Rope4_Seg01
Rope4_Seg03 Rope4_Seg02
Rope4_Seg04 Rope4_Seg03
Rope4_Seg05 Rope4_Seg04
Rope4_Seg06 Rope4_Seg05
Rope4_Seg07 Rope4_Seg06
Rope4_Seg08 Rope4_Seg07
Rope4_Seg09 Rope4_Seg08
L_rear_hand01 Rope4_Seg09
L_rear_hand02 Rope4_Seg09
L_rear_hand03 Rope4_Seg09
[BasePosition]
#SegmentName Tx, Ty, Tz, Rx, Ry, Rz, BoneLength
MASTER 0.000000 0.000000 0.000000 -90.000000 0.000000 0.000000 10.000000 
root 0.000000 0.000000 0.000000 0.000000 0.000000 0.000000 10.000000 
chest 0.000000 0.000000 0.000000 0.000000 0.000000 0.000000 10.000000 
L_mid_tent01 0.000000 0.000000 0.000000 0.000000 0.000000 0.000000 10.000000 
R_mid_tent01 0.000000 0.000000 0.000000 0.000000 0.000000 0.000000 10.000000 
spine01 0.000000 0.000000 0.000000 0.000000 0.000000 0.000000 10.000000 
Bip01_Neck 0.000000 0.000000 0.000000 0.000000 0.000000 0.000000 10.000000 
L_humerus 0.000000 0.000000 0.000000 0.000000 0.000000 0.000000 10.000000 
R_humerus 0.000000 0.000000 0.000000 0.000000 0.000000 0.000000 10.000000 
weapon_bone 0.000000 0.000000 0.000000 0.000000 0.000000 0.000000 10.000000 
Bip01_Head 0.000000 0.000000 0.000000 0.000000 0.000000 0.000000 10.000000 
eye_left_bone 0.000000 0.000000 0.000000 0.000000 0.000000 0.000000 10.000000 
eye_right_bone 0.000000 0.000000 0.000000 0.000000 0.000000 0.000000 10.000000 
L_forearm 0.000000 0.000000 0.000000 0.000000 0.000000 0.000000 10.000000 
L_front_hand 0.000000 0.000000 0.000000 0.000000 0.000000 0.000000 10.000000 
L_weapon_bone 0.000000 0.000000 0.000000 0.000000 0.000000 0.000000 10.000000 
L_front_hand01_01 0.000000 0.000000 0.000000 0.000000 0.000000 0.000000 10.000000 
L_front_hand02_01 0.000000 0.000000 0.000000 0.000000 0.000000 0.000000 10.000000 
L_front_hand03_01 0.000000 0.000000 0.000000 0.000000 0.000000 0.000000 10.000000 
L_front_hand01_02 0.000000 0.000000 0.000000 0.000000 0.000000 0.000000 10.000000 
L_front_hand02_02 0.000000 0.000000 0.000000 0.000000 0.000000 0.000000 10.000000 
L_front_hand03_02 0.000000 0.000000 0.000000 0.000000 0.000000 0.000000 10.000000 
R_forearm 0.000000 0.000000 0.000000 0.000000 0.000000 0.000000 10.000000 
R_front_hand 0.000000 0.000000 0.000000 0.000000 0.000000 0.000000 10.000000 
R_weapon_bone 0.000000 0.000000 0.000000 0.000000 0.000000 0.000000 10.000000 
R_front_hand01_01 0.000000 0.000000 0.000000 0.000000 0.000000 0.000000 10.000000 
R_front_hand02_01 0.000000 0.000000 0.000000 0.000000 0.000000 0.000000 10.000000 
R_front_hand03_01 0.000000 0.000000 0.000000 0.000000 0.000000 0.000000 10.000000 
R_front_hand01_02 0.000000 0.000000 0.000000 0.000000 0.000000 0.000000 10.000000 
R_front_hand02_02 0.000000 0.000000 0.000000 0.000000 0.000000 0.000000 10.000000 
R_front_hand03_02 0.000000 0.000000 0.000000 0.000000 0.000000 0.000000 10.000000 
null_rope01_connect 0.000000 0.000000 0.000000 0.000000 0.000000 0.000000 10.000000 
Rope1_Seg01 0.000000 0.000000 0.000000 0.000000 0.000000 0.000000 10.000000 
Rope1_Seg02 0.000000 0.000000 0.000000 0.000000 0.000000 0.000000 10.000000 
Rope1_Seg03 0.000000 0.000000 0.000000 0.000000 0.000000 0.000000 10.000000 
Rope1_Seg04 0.000000 0.000000 0.000000 0.000000 0.000000 0.000000 10.000000 
Rope1_Seg05 0.000000 0.000000 0.000000 0.000000 0.000000 0.000000 10.000000 
Rope1_Seg06 0.000000 0.000000 0.000000 0.000000 0.000000 0.000000 10.000000 
Rope1_Seg07 0.000000 0.000000 0.000000 0.000000 0.000000 0.000000 10.000000 
Rope1_Seg09 0.000000 0.000000 0.000000 0.000000 0.000000 0.000000 10.000000 
L_mid_hand01 0.000000 0.000000 0.000000 0.000000 0.000000 0.000000 10.000000 
L_mid_hand02 0.000000 0.000000 0.000000 0.000000 0.000000 0.000000 10.000000 
L_mid_hand03 0.000000 0.000000 0.000000 0.000000 0.000000 0.000000 10.000000 
null_rope02_connect 0.000000 0.000000 0.000000 0.000000 0.000000 0.000000 10.000000 
Rope2_Seg01 0.000000 0.000000 0.000000 0.000000 0.000000 0.000000 10.000000 
Rope2_Seg02 0.000000 0.000000 0.000000 0.000000 0.000000 0.000000 10.000000 
Rope2_Seg03 0.000000 0.000000 0.000000 0.000000 0.000000 0.000000 10.000000 
Rope2_Seg04 0.000000 0.000000 0.000000 0.000000 0.000000 0.000000 10.000000 
Rope2_Seg05 0.000000 0.000000 0.000000 0.000000 0.000000 0.000000 10.000000 
Rope2_Seg06 0.000000 0.000000 0.000000 0.000000 0.000000 0.000000 10.000000 
Rope2_Seg07 0.000000 0.000000 0.000000 0.000000 0.000000 0.000000 10.000000 
Rope2_Seg09 0.000000 0.000000 0.000000 0.000000 0.000000 0.000000 10.000000 
R_mid_hand01 0.000000 0.000000 0.000000 0.000000 0.000000 0.000000 10.000000 
R_mid_hand02 0.000000 0.000000 0.000000 0.000000 0.000000 0.000000 10.000000 
R_mid_hand03 0.000000 0.000000 0.000000 0.000000 0.000000 0.000000 10.000000 
spine02 0.000000 0.000000 0.000000 0.000000 0.000000 0.000000 10.000000 
spine03 0.000000 0.000000 0.000000 0.000000 0.000000 0.000000 10.000000 
pelvis 0.000000 0.000000 0.000000 0.000000 0.000000 0.000000 10.000000 
null_rope03_connect 0.000000 0.000000 0.000000 0.000000 0.000000 0.000000 10.000000 
null_rope04_connect 0.000000 0.000000 0.000000 0.000000 0.000000 0.000000 10.000000 
Rope3_Seg01 0.000000 0.000000 0.000000 0.000000 0.000000 0.000000 10.000000 
Rope3_Seg02 0.000000 0.000000 0.000000 0.000000 0.000000 0.000000 10.000000 
Rope3_Seg03 0.000000 0.000000 0.000000 0.000000 0.000000 0.000000 10.000000 
Rope3_Seg04 0.000000 0.000000 0.000000 0.000000 0.000000 0.000000 10.000000 
Rope3_Seg05 0.000000 0.000000 0.000000 0.000000 0.000000 0.000000 10.000000 
Rope3_Seg06 0.000000 0.000000 0.000000 0.000000 0.000000 0.000000 10.000000 
Rope3_Seg07 0.000000 0.000000 0.000000 0.000000 0.000000 0.000000 10.000000 
Rope3_Seg08 0.000000 0.000000 0.000000 0.000000 0.000000 0.000000 10.000000 
Rope3_Seg09 0.000000 0.000000 0.000000 0.000000 0.000000 0.000000 10.000000 
R_rear_hand01 0.000000 0.000000 0.000000 0.000000 0.000000 0.000000 10.000000 
R_rear_hand02 0.000000 0.000000 0.000000 0.000000 0.000000 0.000000 10.000000 
R_rear_hand03 0.000000 0.000000 0.000000 0.000000 0.000000 0.000000 10.000000 
Rope4_Seg01 0.000000 0.000000 0.000000 0.000000 0.000000 0.000000 10.000000 
Rope4_Seg02 0.000000 0.000000 0.000000 0.000000 0.000000 0.000000 10.000000 
Rope4_Seg03 0.000000 0.000000 0.000000 0.000000 0.000000 0.000000 10.000000 
Rope4_Seg04 0.000000 0.000000 0.000000 0.000000 0.000000 0.000000 10.000000 
Rope4_Seg05 0.000000 0.000000 0.000000 0.000000 0.000000 0.000000 10.000000 
Rope4_Seg06 0.000000 0.000000 0.000000 0.000000 0.000000 0.000000 10.000000 
Rope4_Seg07 0.000000 0.000000 0.000000 0.000000 0.000000 0.000000 10.000000 
Rope4_Seg08 0.000000 0.000000 0.000000 0.000000 0.000000 0.000000 10.000000 
Rope4_Seg09 0.000000 0.000000 0.000000 0.000000 0.000000 0.000000 10.000000 
L_rear_hand01 0.000000 0.000000 0.000000 0.000000 0.000000 0.000000 10.000000 
L_rear_hand02 0.000000 0.000000 0.000000 0.000000 0.000000 0.000000 10.000000 
L_rear_hand03 0.000000 0.000000 0.000000 0.000000 0.000000 0.000000 10.000000 
#Beginning of Data. Separated by tabs
#Fr	Tx	Ty	Tz	Rx	Ry	Rz	SF
[MASTER]
29 0.000000 0.000000 0.000000 0.001660 0.001660 0.001660 0.000000
30 0.000000 0.000000 0.000000 0.001660 0.001660 0.001660 0.000000
[root]
29 -37.865845 11.325034 1467.086182 -91.740158 13.400836 -90.225014 1467.618530
30 -37.796844 11.044895 1471.169189 -91.740158 13.400834 -90.225014 1471.696167
[chest]
29 -84.512650 -34.090519 0.000000 -2.117274 0.462005 -179.268204 91.129311
30 -84.512650 -34.090519 0.000000 -2.117274 0.462005 -179.268204 91.129311
[L_mid_tent01]
29 27.299511 22.177458 -249.918259 -6.563193 17.149700 55.927608 252.381134
30 27.299511 22.177458 -249.918259 -6.452425 14.675817 55.239395 252.381134
[R_mid_tent01]
29 23.228794 24.509907 226.238495 -175.031631 -13.329350 55.380714 228.744751
30 23.228794 24.509907 226.238495 -174.901077 -12.411121 55.163364 228.744751
[spine01]
29 -0.361383 -0.195265 0.000000 -0.000001 -0.000007 22.052340 0.410763
30 -0.361383 -0.195265 0.000000 -0.000001 -0.000007 22.052340 0.410763
[Bip01_Neck]
29 165.484543 71.581718 0.000119 175.896118 1.177290 24.871183 180.302734
30 165.484543 71.581718 0.000119 175.896118 1.177290 24.871183 180.302734
[L_humerus]
29 -13.983130 -135.272980 -120.471481 175.474304 58.687801 -118.474754 181.680161
30 -13.983130 -135.272980 -120.471481 175.474304 58.687801 -118.474754 181.680161
[R_humerus]
29 -13.983309 -135.273102 125.287651 174.588181 -51.786880 -99.934280 184.909012
30 -13.983309 -135.273102 125.287651 174.588181 -51.786880 -99.934280 184.909012
[weapon_bone]
29 235.964890 -300.705902 0.000000 0.000000 -89.951546 -128.212341 382.234833
30 235.964890 -300.705902 0.000000 0.000000 -89.951546 -128.212341 382.234833
[Bip01_Head]
29 163.817291 272.852325 22.822264 1.693472 4.424703 -42.711666 319.069519
30 163.817291 272.852325 22.822264 1.693473 4.424704 -42.711670 319.069519
[eye_left_bone]
29 -24.626970 125.451866 -64.772606 0.000000 -90.000000 -99.840431 143.318359
30 -24.626970 125.451866 -64.772606 0.000000 -90.000000 -99.840431 143.318359
[eye_right_bone]
29 -24.626970 125.451866 64.327362 0.000000 -89.965736 80.156380 143.117676
30 -24.626970 125.451866 64.327362 0.000000 -89.965736 80.156380 143.117676
[L_forearm]
29 322.776093 0.000000 -0.000119 0.000442 -0.002305 -111.718391 322.776093
30 322.776093 0.000000 -0.000119 0.000442 -0.002305 -111.718391 322.776093
[L_front_hand]
29 241.149185 -0.042021 -3.300071 -179.659958 -2.242151 -0.019832 241.171753
30 241.149185 -0.042021 -3.300071 -179.659958 -2.242151 -0.019832 241.171753
[L_weapon_bone]
29 156.183838 0.000000 0.000000 0.000014 0.000007 0.000001 156.183838
30 156.183838 0.000000 0.000000 0.000014 0.000007 0.000001 156.183838
[L_front_hand01_01]
29 86.095154 20.947098 -0.655860 -0.366594 -0.477154 75.385574 88.609184
30 86.095154 20.947098 -0.655860 -0.366594 -0.477154 75.385574 88.609184
[L_front_hand02_01]
29 86.935165 -11.437475 24.513514 154.399796 -59.883835 -61.369587 91.046425
30 86.935165 -11.437475 24.513514 154.399796 -59.883835 -61.369587 91.046425
[L_front_hand03_01]
29 86.637497 -14.123976 -20.424902 -153.913849 58.118122 -62.702866 90.126129
30 86.637497 -14.123976 -20.424902 -153.913849 58.118122 -62.702866 90.126129
[L_front_hand01_02]
29 71.020905 -0.000179 0.000030 0.000334 -0.002323 -106.379684 71.020905
30 71.020905 -0.000179 0.000030 0.000334 -0.002323 -106.379684 71.020905
[L_front_hand02_02]
29 71.020927 -0.000119 0.000060 0.000334 -0.002323 -106.379684 71.020927
30 71.020927 -0.000119 0.000060 0.000334 -0.002323 -106.379684 71.020927
[L_front_hand03_02]
29 71.020905 -0.000060 0.000060 0.000334 -0.002323 -106.379684 71.020905
30 71.020905 -0.000060 0.000060 0.000334 -0.002323 -106.379684 71.020905
[R_forearm]
29 322.776428 -0.000060 0.000030 0.211305 0.032976 -99.623016 322.776428
30 322.776428 -0.000060 0.000030 0.211305 0.032976 -99.623016 322.776428
[R_front_hand]
29 238.847015 -0.006795 2.210259 -0.270529 1.703932 2.322530 238.857239
30 238.847015 -0.006795 2.210259 -0.270529 1.703932 2.322530 238.857239
[R_weapon_bone]
29 155.664093 0.002503 -0.000030 0.003487 0.001180 -90.988930 155.664078
30 155.664093 0.002503 -0.000030 0.003487 0.001180 -90.988930 155.664078
[R_front_hand01_01]
29 87.624611 14.231146 22.918642 -154.633514 -59.950634 61.746063 91.683487
30 87.624611 14.231146 22.918642 -154.633499 -59.950619 61.746044 91.683487
[R_front_hand02_01]
29 89.356956 14.367283 -19.491137 154.602661 58.302849 63.744389 92.579636
30 89.356956 14.367283 -19.491137 154.602661 58.302849 63.744389 92.579636
[R_front_hand03_01]
29 87.286232 -22.307278 -0.143439 0.162155 -0.423168 -75.767921 90.091743
30 87.286232 -22.307278 -0.143439 0.162155 -0.423168 -75.767921 90.091743
[R_front_hand01_02]
29 71.020905 0.000060 0.000119 0.002323 -0.000334 106.381714 71.020905
30 71.020905 0.000060 0.000119 0.002323 -0.000334 106.381714 71.020905
[R_front_hand02_02]
29 71.020844 -0.000030 -0.000119 0.002323 -0.000334 106.381714 71.020836
30 71.020844 -0.000030 -0.000119 0.002323 -0.000334 106.381714 71.020836
[R_front_hand03_02]
29 71.020905 0.000000 0.000030 0.002323 -0.000334 106.381714 71.020905
30 71.020905 0.000000 0.000030 0.002323 -0.000334 106.381714 71.020905
[null_rope01_connect]
29 328.732483 0.000000 -0.000238 178.908524 -69.981712 -159.207962 328.732483
30 328.732483 0.000000 -0.000238 176.977905 -72.295807 -156.445374 328.732483
[Rope1_Seg01]
29 0.000000 0.000000 0.000000 -149.156723 49.890400 -128.430405 0.000000
30 0.000000 0.000000 0.000000 -152.622284 50.122421 -130.256546 0.000000
[Rope1_Seg02]
29 139.999863 -0.000179 0.000000 27.194242 -4.525677 -11.664227 139.999863
30 139.999863 -0.000179 0.000000 27.055090 -4.259954 -12.040328 139.999863
[Rope1_Seg03]
29 139.999924 0.000060 -0.000060 21.993282 -7.265563 -6.547457 139.999924
30 139.999924 0.000060 -0.000060 22.257038 -7.166394 -6.789941 139.999924
[Rope1_Seg04]
29 139.999924 -0.000060 -0.000119 11.400890 -6.006967 -2.136444 139.999924
30 139.999924 -0.000060 -0.000119 11.293609 -6.188925 -1.919830 139.999924
[Rope1_Seg05]
29 139.999832 0.000119 -0.000060 7.803824 -5.407068 -0.898412 139.999832
30 139.999832 0.000119 -0.000060 8.041633 -5.252622 -1.246277 139.999832
[Rope1_Seg06]
29 139.999954 0.000119 -0.000060 7.848291 -7.128196 -0.338916 139.999954
30 139.999954 0.000119 -0.000060 9.060220 -6.894261 -1.504461 139.999954
[Rope1_Seg07]
29 139.999985 0.000060 0.000000 6.990953 -9.052312 0.759781 139.999985
30 139.999985 0.000060 0.000000 8.914703 -9.119434 -0.850040 139.999985
[Rope1_Seg09]
29 121.602913 0.000119 -0.000089 -89.793175 -1.359789 0.847147 121.602913
30 121.602913 0.000119 -0.000089 -89.793175 -1.359789 0.847147 121.602913
[L_mid_hand01]
29 103.859421 1.038730 8.195221 106.855484 -31.239275 -9.461397 104.187431
30 103.859421 1.038730 8.195221 106.855484 -31.239275 -9.461397 104.187431
[L_mid_hand02]
29 105.572853 -4.139662 -10.864139 -142.331345 25.752670 -28.774628 106.211075
30 105.572853 -4.139662 -10.864139 -142.331345 25.752670 -28.774628 106.211075
[L_mid_hand03]
29 104.641464 17.579376 -3.913581 -16.122810 9.734291 34.223598 106.179977
30 104.641464 17.579376 -3.913581 -16.122810 9.734291 34.223598 106.179977
[null_rope02_connect]
29 328.732849 0.000179 -0.000119 -178.564499 77.476608 -19.173107 328.732849
30 328.732849 0.000179 -0.000119 179.581482 78.290985 -21.275883 328.732849
[Rope2_Seg01]
29 0.000000 0.000000 0.000000 165.515198 55.178837 -68.426460 0.000000
30 0.000000 0.000000 0.000000 159.504944 55.994350 -73.563225 0.000000
[Rope2_Seg02]
29 139.999741 -0.000060 -0.000119 -3.441839 8.534774 -1.341841 139.999756
30 139.999741 -0.000060 -0.000119 -1.931046 9.266100 -2.839839 139.999756
[Rope2_Seg03]
29 140.000107 0.000030 0.000000 1.411561 10.976340 -5.877737 140.000107
30 140.000107 0.000030 0.000000 5.235173 11.239129 -7.827819 140.000107
[Rope2_Seg04]
29 139.999802 0.000000 -0.000060 -9.540300 8.489380 -1.519181 139.999802
30 139.999802 0.000000 -0.000060 -1.957763 8.068504 -3.235970 139.999802
[Rope2_Seg05]
29 139.999985 -0.000060 0.000119 -37.094547 -6.835202 27.886873 139.999985
30 139.999985 -0.000060 0.000119 -45.028973 -0.005107 26.224541 139.999985
[Rope2_Seg06]
29 139.999893 -0.000030 -0.000119 -6.375072 -15.606334 13.560818 139.999893
30 139.999893 -0.000030 -0.000119 -8.297825 -14.006934 14.281125 139.999893
[Rope2_Seg07]
29 139.999893 0.000060 -0.000060 -1.639609 -7.461409 5.984837 139.999893
30 139.999893 0.000060 -0.000060 -2.225271 -7.181963 6.374533 139.999893
[Rope2_Seg09]
29 121.338966 0.000089 -0.000060 33.793236 -1.359788 -0.847141 121.338966
30 121.338966 0.000089 -0.000060 33.793236 -1.359788 -0.847141 121.338966
[R_mid_hand01]
29 104.680779 11.144459 -10.335981 -41.523792 25.424656 28.595957 105.778534
30 104.680779 11.144459 -10.335981 -41.523792 25.424656 28.595957 105.778534
[R_mid_hand02]
29 104.070427 2.443552 8.231699 72.847389 -32.746803 10.013901 104.424065
30 104.070427 2.443552 8.231699 72.847389 -32.746803 10.013901 104.424065
[R_mid_hand03]
29 106.028137 -11.221827 -5.996406 -167.901306 10.259192 -37.009720 106.788818
30 106.028137 -11.221827 -5.996406 -167.901306 10.259192 -37.009720 106.788818
[spine02]
29 129.756927 0.001550 0.000119 0.360061 -4.044797 -12.915058 129.756927
30 129.756927 0.001550 0.000119 0.360061 -4.044797 -12.915058 129.756927
[spine03]
29 78.613846 0.087372 -4.898873 1.896495 3.831288 16.473045 78.766380
30 78.613846 0.087372 -4.898873 1.896495 3.831288 16.473045 78.766380
[pelvis]
29 169.435242 0.051022 0.000000 -0.060465 -0.180225 14.087930 169.435257
30 169.435242 0.051022 0.000000 -0.060465 -0.180225 14.087930 169.435257
[null_rope03_connect]
29 -1.257226 -2.466202 137.391083 -159.503860 -89.311867 -163.586563 137.418976
30 -1.257226 -2.466202 137.391083 -159.503860 -89.311867 -163.586563 137.418976
[null_rope04_connect]
29 -1.259640 -2.480268 -137.844437 -159.503860 -89.311867 -163.586563 137.872513
30 -1.259640 -2.480268 -137.844437 -159.503860 -89.311867 -163.586563 137.872513
[Rope3_Seg01]
29 0.000000 0.000000 0.000000 -138.001312 16.289297 -109.153313 0.000000
30 0.000000 0.000000 0.000000 -136.812500 14.846562 -107.571800 0.000000
[Rope3_Seg02]
29 139.999924 -0.000119 0.000060 -3.349822 -8.939581 -2.198190 139.999924
30 139.999924 -0.000119 0.000060 -3.625292 -8.779033 -0.901113 139.999924
[Rope3_Seg03]
29 139.999924 -0.000119 0.000119 -2.708781 -11.237509 -3.226914 139.999924
30 139.999924 -0.000119 0.000119 -3.207925 -10.830768 -1.418741 139.999924
[Rope3_Seg04]
29 139.999924 0.000119 0.000000 -1.758463 -15.778220 -3.990126 139.999924
30 139.999924 0.000119 0.000000 -2.841155 -14.533330 -1.012502 139.999924
[Rope3_Seg05]
29 139.999924 -0.000238 0.000060 0.282575 -2.892139 -5.043417 139.999924
30 139.999924 -0.000238 0.000060 0.351323 -3.739537 -6.000026 139.999924
[Rope3_Seg06]
29 139.999893 -0.000119 -0.000060 0.219107 4.895017 -3.949913 139.999893
30 139.999893 -0.000119 -0.000060 0.364170 2.771053 -6.310238 139.999893
[Rope3_Seg07]
29 139.999771 0.000060 -0.000119 0.427824 0.783852 -2.790079 139.999771
30 139.999771 0.000060 -0.000119 0.436148 -0.281369 -3.640080 139.999771
[Rope3_Seg08]
29 139.999985 -0.000060 0.000000 0.454695 0.434362 -1.841457 139.999985
30 139.999985 -0.000060 0.000000 0.441915 -0.241582 -2.343711 139.999985
[Rope3_Seg09]
29 90.185997 -0.000179 -0.000060 89.793228 -1.359877 -0.847183 90.185997
30 90.185997 -0.000179 -0.000060 89.793228 -1.359877 -0.847183 90.185997
[R_rear_hand01]
29 103.366196 -6.073594 -10.757982 -161.551193 16.666374 -30.088671 104.101845
30 103.366196 -6.073594 -10.757982 -161.551193 16.666374 -30.088671 104.101845
[R_rear_hand02]
29 100.509819 12.039542 -7.992327 -34.280552 19.289745 28.875523 101.543350
30 100.509819 12.039542 -7.992327 -34.280552 19.289745 28.875523 101.543350
[R_rear_hand03]
29 101.539970 5.215704 5.435467 83.366440 -30.933914 7.284830 101.819031
30 101.539970 5.215704 5.435467 83.366440 -30.933914 7.284830 101.819031
[Rope4_Seg01]
29 0.000010 0.000038 -0.000114 37.949226 28.321152 -123.959358 0.000121
30 0.000010 0.000038 -0.000114 38.333607 29.523886 -122.912628 0.000121
[Rope4_Seg02]
29 139.999985 0.000060 0.000119 0.750219 5.295670 6.634844 139.999985
30 139.999985 0.000060 0.000119 0.641705 4.425417 6.295599 139.999985
[Rope4_Seg03]
29 139.999924 0.000000 -0.000238 0.483101 8.213242 10.214581 139.999924
30 139.999924 0.000000 -0.000238 0.342817 6.761323 9.540226 139.999924
[Rope4_Seg04]
29 139.999985 0.000000 0.000119 -1.597492 15.617501 20.788490 139.999985
30 139.999985 0.000000 0.000119 -1.633677 12.409667 19.024023 139.999985
[Rope4_Seg05]
29 139.999802 -0.000060 -0.000119 -3.098507 6.225851 8.278773 139.999802
30 139.999802 -0.000060 -0.000119 -3.039270 6.970077 9.657523 139.999802
[Rope4_Seg06]
29 139.999924 0.000000 0.000060 3.260871 -2.367802 -5.511427 139.999924
30 139.999924 0.000000 0.000060 2.055411 -0.020851 -2.882838 139.999924
[Rope4_Seg07]
29 139.999802 0.000000 0.000000 0.396764 0.239960 -0.264588 139.999802
30 139.999802 0.000000 0.000000 -0.034393 1.144409 0.847072 139.999802
[Rope4_Seg08]
29 139.999924 0.000000 0.000119 -1.328900 0.198573 -0.079781 139.999924
30 139.999924 0.000000 0.000119 -1.582586 0.711629 0.550752 139.999924
[Rope4_Seg09]
29 90.185791 0.000060 0.000060 -135.617828 2.228885 0.850567 90.185791
30 90.185791 0.000060 0.000060 -135.617828 2.228885 0.850567 90.185791
[L_rear_hand01]
29 101.696655 -8.392275 -7.654577 -34.454281 -18.946800 151.655121 102.329041
30 101.696655 -8.392275 -7.654577 -34.454281 -18.946800 151.655121 102.329041
[L_rear_hand02]
29 102.726799 -1.568258 5.773216 83.407906 30.330435 172.796509 102.900848
30 102.726799 -1.568258 5.773216 83.407906 30.330435 172.796509 102.900848
[L_rear_hand03]
29 104.552910 9.721220 -10.420293 -161.379868 -16.473232 -150.512238 105.519653
30 104.552910 9.721220 -10.420293 -161.379868 -16.473232 -150.512238 105.519653
